# xmcd CD database file
#
# Track frame offsets:
#	150
#	72026
#	110398
#
# Disc length: 2059 seconds
#
# Revision: 0
# Processed by: cddbd v1.5PL3 Copyright (c) Steve Scherf et al.
# Submitted via: CDex 1.50beta10
#
DISCID=1e080903
DTITLE=Emmanuel Booz - Dans Quel Etat Jarre
DYEAR=1900
DGENRE=Progressive Rock
TTITLE0=Ode Aux Rats
TTITLE1=La Symphonie Catastrophique
TTITLE2=Armoire Et Persil
EXTD=
EXTT0=
EXTT1=
EXTT2=
PLAYORDER=
